<?xml version="1.0" encoding="UTF-8"?>
<svg xmlns="http://www.w3.org/2000/svg" width="512" height="512">
    <path
        d="m1.7429647 2.7389446 349.3935953.2489949 10.62651 4.6224874 8.25301 7.3775131 4.75101 7.634547.12851 4.373493-4.05103 347.36991-.47868 12.40853-7.29574 6.18294-7.18294 1.47868-7.52132.29573-344.4924375 8.27511-8.3590096-5.93673-9.7042639-5.88721-1.119218-7.03708-.0791-7.06203-8.495408-349.838855 4.746985-11.124498 6.630528-7.5060299 9.6265073-4.7510051zM302 54l-24 3-16 4-5 5-1 2v7l7 29 5 22 9 33 17 69 6 22 8 34 8 30 1 9-4-1-19-39-9-20-14-29-9-20-11-23-13-28-12-25-10-21-11-23-4-6-4-2-9 1-14 7-18 11-12 9-3 4v7l4 6 9 11 11 13 7 9 8 10 8 10 13 15 7 9 8 10 9 11 9 11 9 11 9 11 9 11 12 14 13 16 11 14 7 9 1 3-2 1-9-6-16-13-11-9-16-13-11-9-16-12-13-11-13-11-14-11-11-9-10-8-11-9-13-11-18-14-12-10-9-6-6-1-7 4-8 10-12 18-8 15-1 8 3 5 8 5 23 11 26 12 23 11 24 11 26 12 29 13 16 8 24 11 30 14 4 3 1 3-10-1-30-8-28-7-22-5-30-8-21-5-36-9-31-7-30-8-9-2H38l-5 5-3 10-3 15-1 9v21l3 7 4 3 4 1h278l7-3 3-4 1-4V65l-2-6-4-4-5-1z"
        style="display:inline" transform="translate(79 53)" />
    <path
        d="M420.33789 52.494141c-1.41187.01193-2.82442.018025-4.23633.015625-3.91669-.01551-7.83332-.01766-11.75 0-4.27274.01946-8.54558.022078-12.81836.017578-8.37798-.00972-16.75485-.002189-25.13281.019531-9.83662.02556-19.67311.034909-29.50977.037109-17.52106.0032-35.04147.019655-52.5625.052735-17.06395.03248-34.12937.058106-51.19335.066406l-3.19141.001953c-4.23881.002-8.47799.00396-12.7168.00586-16.3342.007239-32.66775.022052-49.00195.039062-4.91331.00519-9.82692.009272-14.74023.013672-10.4323.0089-20.86459.019302-31.29688.039062-4.31851.00873-8.63656.019538-12.95508.023438-4.0059.00265-8.01169.005605-12.017576.015625-1.45579.00414-2.911398.008419-4.367188.011719-1.37197-.000279-2.745227-.001863-4.117187-.001954l-3.740235.013672c-8.51995.01427-15.698076 2.487939-22.279296 8.080078-8.515285 8.897996-10.311627 18.714284-10.216797 30.75586.01193 1.416608.016072 2.833343.013671 4.25-.01552 3.929674-.015696 7.857438.001954 11.787108.01946 4.28691.022078 8.57438.017578 12.86133-.00972 8.40545-.002189 16.81137.019531 25.2168.02555 9.86794.032956 19.73554.035156 29.60351.0032 17.57527.021608 35.14937.054688 52.72461.03249 17.11897.058106 34.23841.066406 51.35742l.001953 3.20313c.002 4.25307.00396 8.50669.00586 12.75976.007239 16.38477.022042 32.76954.039062 49.1543.00529 4.92876.009272 9.8564.013672 14.78516.0089 10.46683.019292 20.93357.039062 31.40039.00873 4.33149.019538 8.6646.023438 12.99609.00265 4.01956.005595 8.03905.015625 12.0586.00414 1.45905.008419 2.91789.011719 4.37695-.00028 1.37883-.001863 2.75789-.001954 4.13672l.013672 3.74414c.013334 7.98661 2.883753 15.05079 8.080078 21.17578 8.893901 8.49543 18.687037 10.30799 30.716797 10.21289 1.41186-.0118 2.824409-.01567 4.236329-.01367 3.916679.0156 7.833322.01574 11.750002-.00196 4.27274-.0198 8.54559-.02257 12.81836-.01757 8.37799.0097 16.75486.00217 25.13281-.01954 9.83663-.02559 19.67311-.0351 29.50977-.0371 17.52105-.0032 35.04343-.01964 52.56445-.05274 17.06395-.0325 34.12743-.05841 51.1914-.0664l3.19141-.00196 12.7168-.00586c16.3342-.0073 32.66971-.02206 49.0039-.03906 4.91332-.005 9.82497-.00967 14.73828-.01367 10.4323-.0089 20.86459-.01926 31.29688-.03906 4.31852-.0087 8.63851-.01749 12.95703-.02149 4.0059-.0027 8.0117-.00758 12.01758-.01758 1.45579-.0041 2.9114-.00872 4.36719-.01172 1.37196.00028 2.74327.00187 4.11523.00196l3.74024-.01367c8.51995-.01427 15.69857-2.48759 22.27929-8.08008 8.50339-8.88557 10.3118-18.69059 10.2168-30.7168-.0118-1.41186-.01567-2.82441-.01367-4.23633.0156-3.91668.01574-7.83332-.00196-11.75-.0198-4.27274-.02062-8.54558-.01562-12.81836.0098-8.37798.00022-16.75485-.02149-25.13281-.02559-9.83662-.03315-19.67311-.03515-29.50977-.0032-17.52105-.02159-35.04147-.05469-52.5625-.0325-17.06394-.05841-34.12937-.0664-51.19335l-.00196-3.19141-.00586-12.7168c-.0072-16.3342-.02011-32.66776-.03711-49.00195-.005-4.91332-.01162-9.82693-.01562-14.74023-.0089-10.43232-.01926-20.86459-.03906-31.29688-.0087-4.31851-.01749-8.63851-.02149-12.95703-.0027-4.00589-.00758-8.01169-.01758-12.017579-.0041-1.455791-.00676-2.911395-.00976-4.367188.00028-1.371961-.00009-2.743273 0-4.115234l-.01367-3.740235c-.01427-8.519953-2.48759-15.698575-8.08008-22.279296-8.88556-8.503392-18.69059-10.311827-30.7168-10.216797m-4.16406 22.015625c2.72902.00579 5.45955-.035617 8.1875.058593 2.63551.115139 5.63693.465434 8.14844 1.677735 2.33054.880861 3.83754 3.15673 4.28906 5.539062.40597 2.772025.23619 5.592374.30469 8.386719.15105 96.996375.2579 193.993745.36523 290.990235 0 12.64519.04281 25.29042.00781 37.93555-.05771 4.61666.24358 9.50269-1.88672 13.7539-1.07303 2.50695-3.77647 3.85248-6.38086 4.08985-6.57539.24544-13.16053.144-19.74023.1914-105.04038.17757-210.0806.24962-315.121094.35157-4.72297-.0826-9.638313.33195-14.134765-1.41407-2.226406-.68632-3.994203-2.49752-4.746094-4.6875-.796594-2.52915-.481403-5.23031-.570313-7.84179-.157157-106.80876-.286055-213.6189-.384765-320.42774.029618-5.577314-.108845-11.159222.142578-16.732421.237181-3.10168.839806-6.377032 2.820312-8.871093 1.944389-2.196646 5.071349-2.600303 7.845703-2.595704 110.284088-.224858 220.569158-.28903 330.853518-.404296"
        style="display:inline" />
</svg>